<?xml version="1.0" encoding="UTF-8"?>
<svg width="100pt" height="100pt" version="1.1" viewBox="0 0 100 100" xmlns="http://www.w3.org/2000/svg">
 <defs>
  <clipPath id="d">
   <path d="m32 18.512h36v44.488h-36z"/>
  </clipPath>
  <clipPath id="c">
   <path d="m20 70h11v11.488h-11z"/>
  </clipPath>
  <clipPath id="b">
   <path d="m44 70h12v11.488h-12z"/>
  </clipPath>
  <clipPath id="a">
   <path d="m69 70h11v11.488h-11z"/>
  </clipPath>
 </defs>
 <path d="m100 50c0 27.613-22.387 50-50 50s-50-22.387-50-50 22.387-50 50-50 50 22.387 50 50" fill="#7fcac9"/>
 <path d="m61.191 46.062c-0.12109 0-0.36719-0.12109-0.49219-0.24609l-4.3047-4.3047c-0.24609-0.24609-0.24609-0.73828 0-0.98438l13.898-13.898c0.36719-0.36719 0.98438-0.61328 1.4766-0.61328 0.61328 0 1.1055 0.24609 1.4766 0.61328l2.4609 2.4609c0.73828 0.73828 0.73828 2.0898 0 2.8281l-13.898 13.898c-0.12109 0.12109-0.36719 0.24609-0.61328 0.24609zm-3.1992-5.043 3.1992 3.1992 13.406-13.285c0.24609-0.24609 0.24609-0.61328 0-0.85938l-2.4609-2.4609s-0.24609-0.12109-0.36719-0.12109c-0.12109 0-0.24609 0.12109-0.36719 0.12109l-13.406 13.406z" fill="#006cc1" fill-rule="evenodd"/>
 <path d="m54.918 48.156c-0.24609 0-0.36719-0.12109-0.49219-0.24609-0.24609-0.24609-0.36719-0.49219-0.24609-0.73828l2.0898-6.3945c0.12109-0.24609 0.24609-0.36719 0.49219-0.49219 0.24609 0 0.49219 0 0.73828 0.24609l4.3047 4.3047c0.12109 0.12109 0.24609 0.36719 0.12109 0.61328 0 0.24609-0.24609 0.49219-0.49219 0.61328l-6.2734 1.9688c-0.12109 0.12109-0.24609 0.12109-0.24609 0.12109zm2.3359-5.7812-1.2305 3.8125 3.8125-1.2305z" fill="#006cc1" fill-rule="evenodd"/>
 <path d="m72.879 34.379c-0.12109 0-0.36719 0-0.49219-0.24609l-4.3047-4.1836c-0.24609-0.36719-0.24609-0.85938 0-1.1055 0.36719-0.24609 0.73828-0.24609 1.1055 0l4.1836 4.3047c0.36719 0.24609 0.36719 0.73828 0 0.98437-0.12109 0.24609-0.24609 0.24609-0.49219 0.24609z" fill="#006cc1" fill-rule="evenodd"/>
 <path d="m61.191 41.758c-0.12109 0-0.36719 0-0.49219-0.24609-0.24609-0.24609-0.24609-0.73828 0-0.98438l7.3789-7.3789c0.36719-0.24609 0.73828-0.24609 1.1055 0 0.24609 0.24609 0.24609 0.73828 0 0.98437l-7.3789 7.3789c-0.12109 0.24609-0.36719 0.24609-0.61328 0.24609z" fill="#006cc1" fill-rule="evenodd"/>
 <g clip-path="url(#d)">
  <path d="m65.742 62.793h-31.488c-0.98438 0-1.7227-0.73828-1.7227-1.7227v-40.836c0-0.98438 0.73828-1.7227 1.7227-1.7227h23.984c0.12109 0 0.36719 0.12109 0.49219 0.24609l8.6094 8.4883c0.12109 0.12109 0.12109 0.36719 0.12109 0.61328v3.3203c0 0.24609 0 0.36719-0.12109 0.61328l-9.7188 9.5938-1.5977 4.7969 4.7969-1.4766 5.4102-5.4102c0.24609-0.24609 0.49219-0.24609 0.85938-0.12109 0.24609 0 0.36719 0.36719 0.36719 0.61328v21.277c0 0.98438-0.73828 1.7227-1.7227 1.7227zm-31.488-42.805c-0.12109 0-0.24609 0-0.24609 0.12109v0.12109 40.836c0 0.12109 0.12109 0.24609 0.24609 0.24609h31.488c0.12109 0 0.24609-0.12109 0.24609-0.24609v-19.434l-4.1836 4.1836c-0.12109 0.12109-0.24609 0.12109-0.36719 0.24609l-6.2734 1.9688c-0.24609 0.12109-0.61328 0.12109-0.73828-0.12109-0.24609-0.24609-0.36719-0.49219-0.24609-0.73828l2.0898-6.3945c0-0.12109 0.12109-0.12109 0.12109-0.24609l9.5938-9.5938v-2.8281l-8.1172-8.1172h-23.617z" fill="#006cc1" fill-rule="evenodd"/>
 </g>
 <path d="m61.191 27.859h-22.387c-0.36719 0-0.73828-0.24609-0.73828-0.73828 0-0.36719 0.36719-0.73828 0.73828-0.73828h22.387c0.36719 0 0.73828 0.36719 0.73828 0.73828 0 0.49219-0.36719 0.73828-0.73828 0.73828z" fill="#006cc1" fill-rule="evenodd"/>
 <path d="m61.191 34.625h-22.387c-0.36719 0-0.73828-0.36719-0.73828-0.73828 0-0.36719 0.36719-0.73828 0.73828-0.73828h22.387c0.36719 0 0.73828 0.36719 0.73828 0.73828 0 0.36719-0.36719 0.73828-0.73828 0.73828z" fill="#006cc1" fill-rule="evenodd"/>
 <path d="m57.379 41.391h-18.574c-0.36719 0-0.73828-0.36719-0.73828-0.73828 0-0.36719 0.36719-0.73828 0.73828-0.73828h18.574c0.36719 0 0.73828 0.36719 0.73828 0.73828 0 0.36719-0.36719 0.73828-0.73828 0.73828z" fill="#006cc1" fill-rule="evenodd"/>
 <path d="m61.191 48.156h-22.387c-0.36719 0-0.73828-0.36719-0.73828-0.73828 0-0.49219 0.36719-0.73828 0.73828-0.73828h22.387c0.36719 0 0.73828 0.24609 0.73828 0.73828 0 0.36719-0.36719 0.73828-0.73828 0.73828z" fill="#006cc1" fill-rule="evenodd"/>
 <path d="m61.191 54.918h-22.387c-0.36719 0-0.73828-0.36719-0.73828-0.73828 0-0.49219 0.36719-0.73828 0.73828-0.73828h22.387c0.36719 0 0.73828 0.24609 0.73828 0.73828 0 0.36719-0.36719 0.73828-0.73828 0.73828z" fill="#006cc1" fill-rule="evenodd"/>
 <path d="m74.477 72.387c-0.49219 0-0.73828-0.36719-0.73828-0.73828v-26.32h-6.2734v15.742c0 0.98438-0.73828 1.7227-1.7227 1.7227h-31.488c-0.98438 0-1.7227-0.73828-1.7227-1.7227v-15.742h-6.2734v26.32c0 0.36719-0.24609 0.73828-0.73828 0.73828-0.36719 0-0.73828-0.36719-0.73828-0.73828v-27.059c0-0.49219 0.36719-0.73828 0.73828-0.73828h7.75c0.36719 0 0.73828 0.24609 0.73828 0.73828v16.48c0 0.12109 0.12109 0.24609 0.24609 0.24609h31.488c0.12109 0 0.24609-0.12109 0.24609-0.24609v-16.48c0-0.49219 0.36719-0.73828 0.73828-0.73828h7.75c0.36719 0 0.73828 0.24609 0.73828 0.73828v27.059c0 0.36719-0.36719 0.73828-0.73828 0.73828z" fill="#006cc1" fill-rule="evenodd"/>
 <path d="m50 72.387c-0.36719 0-0.73828-0.36719-0.73828-0.73828v-9.5938c0-0.36719 0.36719-0.73828 0.73828-0.73828 0.36719 0 0.73828 0.36719 0.73828 0.73828v9.5938c0 0.36719-0.36719 0.73828-0.73828 0.73828z" fill="#006cc1" fill-rule="evenodd"/>
 <g clip-path="url(#c)">
  <path d="m25.523 81.488c-2.8281 0-5.2891-2.3359-5.2891-5.2891s2.4609-5.2891 5.2891-5.2891c2.9531 0 5.2891 2.3359 5.2891 5.2891s-2.3359 5.2891-5.2891 5.2891zm0-9.1016c-2.0898 0-3.8125 1.7227-3.8125 3.8125 0 2.0898 1.7227 3.8125 3.8125 3.8125 2.0898 0 3.8125-1.7227 3.8125-3.8125 0-2.0898-1.7227-3.8125-3.8125-3.8125z" fill="#006cc1" fill-rule="evenodd"/>
 </g>
 <g clip-path="url(#b)">
  <path d="m50 81.488c-2.9531 0-5.2891-2.3359-5.2891-5.2891s2.3359-5.2891 5.2891-5.2891 5.2891 2.3359 5.2891 5.2891-2.3359 5.2891-5.2891 5.2891zm0-9.1016c-2.0898 0-3.8125 1.7227-3.8125 3.8125 0 2.0898 1.7227 3.8125 3.8125 3.8125s3.8125-1.7227 3.8125-3.8125c0-2.0898-1.7227-3.8125-3.8125-3.8125z" fill="#006cc1" fill-rule="evenodd"/>
 </g>
 <g clip-path="url(#a)">
  <path d="m74.477 81.488c-2.9531 0-5.2891-2.3359-5.2891-5.2891s2.3359-5.2891 5.2891-5.2891c2.8281 0 5.2891 2.3359 5.2891 5.2891s-2.4609 5.2891-5.2891 5.2891zm0-9.1016c-2.0898 0-3.8125 1.7227-3.8125 3.8125 0 2.0898 1.7227 3.8125 3.8125 3.8125 2.0898 0 3.8125-1.7227 3.8125-3.8125 0-2.0898-1.7227-3.8125-3.8125-3.8125z" fill="#006cc1" fill-rule="evenodd"/>
 </g>
</svg>
